<?xml version="1.0" encoding="UTF-8"?>
<svg id="Capa_2" data-name="Capa 2" xmlns="http://www.w3.org/2000/svg" viewBox="0 0 116.68 116.71">
  <defs>
    <style>
      .cls-1 {
        fill: #fff;
        stroke-width: 0px;
      }
    </style>
  </defs>
  <g id="Capa_2-2" data-name="Capa 2">
    <g>
      <path class="cls-1" d="M116.68,58.41c.05,32.06-26.04,58.3-57.97,58.3C26.12,116.72.15,91.04,0,58.65-.15,26.41,26.06,0,58.21,0c32.29,0,58.42,26.1,58.47,58.41ZM112.26,58.71c.05-30.25-23.95-54.39-54-54.32-29.94.08-53.89,24.06-53.92,53.96-.02,29.82,23.96,53.96,53.81,54.15,29.7.19,54.06-24.03,54.11-53.8Z"/>
      <path class="cls-1" d="M61.29,91.49h-12.68c0-5.06,0-9.85,0-14.64s0-9.55,0-14.66c-3.73-.17-6.83-.31-10.27-.47v-10.84c3.19-.17,6.42-.34,10.11-.54.69-8.37-1.92-17.76,7.13-23.15,5.4-3.22,11.16-2.37,17.14-1.09v8.91c-12.2,2.53-12.5,2.93-11.29,15.3,3.44.18,6.99.37,10.51.55q.07,10.12-10.65,11.59v29.02Z"/>
    </g>
  </g>
</svg>