<?xml version="1.0" encoding="UTF-8"?>
<svg id="Capa_2" data-name="Capa 2" xmlns="http://www.w3.org/2000/svg" viewBox="0 0 117.69 117.5">
  <defs>
    <style>
      .cls-1 {
        fill: #fff;
        stroke-width: 0px;
      }
    </style>
  </defs>
  <g id="Capa_2-2" data-name="Capa 2">
    <g>
      <path class="cls-1" d="M58.54,117.5C26.14,117.37-.06,90.98,0,58.53.06,26.34,26.85-.21,59.05,0c32.1.21,58.62,26.69,58.64,58.54.02,32.54-26.61,59.09-59.15,58.95ZM58.8,113.1c30-.04,54.34-24.3,54.36-54.2.03-30.06-24.81-54.85-54.66-54.54C28.48,4.66,4.41,28.98,4.48,58.95c.07,30,24.33,54.19,54.32,54.15Z"/>
      <path class="cls-1" d="M59.47,26.8c5.32,0,10.65-.16,15.96.03,8.88.32,15.25,6.8,15.36,15.7.13,10.8.12,21.6.01,32.4-.09,8.83-6.46,15.66-15.24,15.89-11.14.29-22.29.27-33.43,0-8.79-.21-15.25-6.9-15.41-15.77-.2-10.8-.2-21.61,0-32.4.16-9.24,6.59-15.59,15.79-15.85,5.65-.16,11.31-.03,16.96-.03v.02ZM85.67,58.82c0-5.16.09-10.31-.02-15.47-.16-6.91-4.43-11.26-11.25-11.33-10.48-.1-20.97-.12-31.45,0-6.49.08-10.93,4.49-11.03,11.05-.15,10.47-.15,20.95,0,31.43.09,6.39,4.12,10.89,10.5,11.09,10.81.34,21.64.32,32.45.02,6.66-.18,10.62-4.67,10.78-11.33.12-5.15.02-10.31.03-15.47Z"/>
      <path class="cls-1" d="M59.2,42.88c8.74.16,15.65,7.29,15.58,16.09-.07,8.88-7.6,16.16-16.4,15.87-8.72-.29-15.73-7.56-15.61-16.19.12-8.96,7.39-15.93,16.43-15.76ZM69.56,58.83c.02-5.87-4.86-10.77-10.74-10.79-5.83-.03-10.81,4.9-10.85,10.73-.04,5.77,4.97,10.8,10.78,10.82,5.84.02,10.79-4.9,10.81-10.75Z"/>
      <path class="cls-1" d="M81.71,41.26c-2.75,1.95-4.26,3.85-5.56,3.72-1.44-.15-2.69-2.15-4.03-3.35,1.24-1.27,2.34-3.35,3.76-3.58,1.31-.22,2.95,1.52,5.83,3.21Z"/>
    </g>
  </g>
</svg>